<svg width="17" height="17" viewBox="0 0 17 17" fill="none" xmlns="http://www.w3.org/2000/svg">
<path d="M11.8485 16.3319C11.6361 16.3319 11.4325 16.2476 11.2823 16.0974C11.1321 15.9472 11.0478 15.7436 11.0478 15.5312V13.4494C11.0727 13.21 11.047 12.9679 10.9726 12.739C10.8981 12.5101 10.7764 12.2993 10.6154 12.1203C10.5157 12.0122 10.4477 11.8787 10.4189 11.7345C10.3901 11.5903 10.4015 11.4409 10.452 11.3028C10.5024 11.1647 10.59 11.0431 10.7049 10.9515C10.8199 10.8598 10.9579 10.8015 11.1038 10.7831C13.0575 10.5509 14.8591 9.9264 14.8591 6.53949C14.8597 5.90701 14.673 5.28851 14.3226 4.76197C13.9992 4.27725 13.8812 3.68413 13.9943 3.11255C14.0665 2.73969 14.0665 2.35644 13.9943 1.98358C13.3948 2.18629 12.8303 2.48071 12.3209 2.85633C12.2246 2.92472 12.1143 2.97095 11.998 2.99172C11.8818 3.01248 11.7623 3.00726 11.6483 2.97643C10.2033 2.56813 8.67348 2.56813 7.2285 2.97643C7.11447 3.00726 6.99504 3.01248 6.87876 2.99172C6.76248 2.97095 6.65223 2.92472 6.55592 2.85633C6.04343 2.47635 5.47294 2.18164 4.86647 1.98358C4.79033 2.35605 4.79033 2.74008 4.86647 3.11255C4.97143 3.69133 4.84802 4.28826 4.52217 4.77798C4.17328 5.30821 3.98683 5.92879 3.98571 6.56351C3.98571 9.67819 5.49101 10.5109 7.74895 10.7992C7.8967 10.8175 8.03641 10.8767 8.15239 10.97C8.26837 11.0634 8.35603 11.1872 8.40551 11.3276C8.45207 11.4639 8.46102 11.6101 8.43143 11.751C8.40184 11.892 8.3348 12.0223 8.23737 12.1283C8.08163 12.2948 7.9621 12.4917 7.8863 12.7067C7.81051 12.9217 7.7801 13.15 7.79699 13.3774V15.5312C7.79699 15.7436 7.71263 15.9472 7.56247 16.0974C7.41231 16.2476 7.20866 16.3319 6.9963 16.3319C6.78395 16.3319 6.58029 16.2476 6.43013 16.0974C6.27997 15.9472 6.19561 15.7436 6.19561 15.5312V15.0748C5.40883 15.1653 4.61188 15.0599 3.87569 14.7679C3.13949 14.476 2.4869 14.0065 1.97599 13.4014C1.71336 13.1103 1.39827 12.8713 1.04719 12.6968C0.945195 12.6705 0.849378 12.6244 0.765208 12.5611C0.681038 12.4977 0.610163 12.4185 0.556631 12.3278C0.503098 12.2371 0.467956 12.1367 0.453211 12.0324C0.438466 11.9281 0.444406 11.8219 0.470693 11.7199C0.49698 11.618 0.543099 11.5221 0.606416 11.438C0.669733 11.3538 0.749009 11.2829 0.839717 11.2294C0.930425 11.1759 1.03079 11.1407 1.13508 11.126C1.23937 11.1112 1.34554 11.1172 1.44753 11.1435C2.06346 11.3678 2.61381 11.7421 3.04891 12.2324C3.8496 13.0331 4.65028 13.7377 6.17159 13.4494C6.14484 13.0195 6.20755 12.5888 6.35575 12.1843C4.70633 11.768 2.35231 10.583 2.35231 6.57953C2.3502 5.63122 2.6288 4.7035 3.153 3.91324C3.25036 3.76736 3.28765 3.58952 3.25709 3.41681C3.09529 2.55253 3.18706 1.65989 3.52132 0.846602C3.56673 0.73816 3.63547 0.641051 3.72265 0.562173C3.80984 0.483294 3.91332 0.424583 4.02575 0.39021C4.29798 0.310141 5.27482 0.150003 7.12441 1.35104C8.62168 0.990729 10.1831 0.990729 11.6803 1.35104C13.5299 0.150003 14.5068 0.302134 14.771 0.39021C14.8834 0.424583 14.9869 0.483294 15.0741 0.562173C15.1613 0.641051 15.23 0.73816 15.2754 0.846602C15.6103 1.66253 15.7021 2.55792 15.5396 3.42482C15.5233 3.50293 15.5226 3.58352 15.5377 3.66188C15.5529 3.74024 15.5834 3.81481 15.6277 3.88121C16.1534 4.67374 16.4321 5.60447 16.4284 6.55551C16.4284 10.615 14.0904 11.792 12.425 12.1603C12.5717 12.59 12.6316 13.0445 12.6011 13.4975V15.5312C12.6015 15.7355 12.5238 15.9322 12.3838 16.0811C12.2439 16.2299 12.0524 16.3197 11.8485 16.3319Z" fill="#fff"/>
</svg>
