<svg width="17" height="17" viewBox="0 0 17 17" fill="none" xmlns="http://www.w3.org/2000/svg">
<path fill-rule="evenodd" clip-rule="evenodd" d="M6.71447 6.31124H9.19047V7.54457C9.54714 6.83524 10.4618 6.19791 11.8358 6.19791C14.4698 6.19791 15.0951 7.60991 15.0951 10.2006V14.9986H12.4285V10.7906C12.4285 9.31524 12.0718 8.48324 11.1638 8.48324C9.90447 8.48324 9.38114 9.37991 9.38114 10.7899V14.9986H6.71447V6.31124ZM2.1418 14.8852H4.80847V6.19791H2.1418V14.8852ZM5.19047 3.36524C5.19057 3.58876 5.14624 3.81006 5.06006 4.0163C4.97388 4.22253 4.84757 4.40958 4.68847 4.56657C4.36607 4.88699 3.92968 5.06634 3.47514 5.06524C3.0214 5.06494 2.58601 4.88604 2.26314 4.56724C2.10461 4.40972 1.97873 4.22246 1.8927 4.0162C1.80667 3.80993 1.76219 3.58872 1.7618 3.36524C1.7618 2.91391 1.9418 2.48191 2.2638 2.16324C2.58639 1.84401 3.02196 1.66504 3.4758 1.66524C3.93047 1.66524 4.36647 1.84457 4.68847 2.16324C5.0098 2.48191 5.19047 2.91391 5.19047 3.36524Z" fill="#fff"/>
</svg>
