<svg width="1466" height="1309" viewBox="0 0 1466 1309" fill="none" xmlns="http://www.w3.org/2000/svg">
<g clip-path="url(#clip0_401_38)">
<path d="M395.479 507.919H331.214C317.108 507.918 303.35 512.291 291.834 520.435C280.318 528.58 271.611 540.095 266.914 553.393L0 1309H64.2653C78.3708 1309 92.1295 1304.63 103.645 1296.48C115.161 1288.34 123.868 1276.82 128.565 1263.53L395.479 507.919Z" fill="#111827"/>
<path d="M366.841 507.919H395.479L671.633 981.75H559.126L325.179 580.357C320.918 573.033 318.663 564.714 318.642 556.241C318.621 547.767 320.834 539.437 325.059 532.092C329.284 524.746 335.37 518.644 342.706 514.4C350.041 510.156 358.366 507.921 366.841 507.919V507.919ZM894.635 507.919H947.786L1227.35 1309H1163.25C1149.11 1309 1135.31 1304.6 1123.78 1296.41C1112.25 1288.22 1103.55 1276.64 1098.89 1263.29L854.848 563.961C852.627 557.609 851.959 550.817 852.901 544.154C853.843 537.492 856.368 531.151 860.264 525.664C864.159 520.177 869.313 515.702 875.293 512.615C881.272 509.528 887.905 507.918 894.635 507.919V507.919Z" fill="#111827"/>
<path d="M947.786 507.919H874.452C862.53 507.919 850.815 511.045 840.478 516.984C830.141 522.924 821.542 531.47 815.539 541.769L559.126 981.75H671.633L947.786 507.919ZM952.968 2.87675e-05H1005.74L1466 1309H1401.8C1387.68 1309 1373.9 1304.62 1362.38 1296.45C1350.86 1288.29 1342.15 1276.75 1337.47 1263.42L913.045 56.3143C910.798 49.936 910.114 43.1118 911.051 36.4145C911.988 29.7173 914.518 23.3425 918.429 17.8255C922.341 12.3085 927.519 7.81032 933.528 4.70858C939.538 1.60685 946.205 -0.00786004 952.968 2.87675e-05V2.87675e-05Z" fill="#111827"/>
<path d="M1005.74 0H932.342C920.441 0.00142015 908.748 3.11723 898.424 9.0377C888.101 14.9582 879.507 23.4771 873.497 33.7477L586.877 523.327C580.569 534.096 577.338 546.39 577.536 558.869C577.734 571.347 581.355 583.532 588.002 594.095L623.902 651.091L1005.74 0ZM1303.55 511.124L1269.76 417.619L928.83 1026.47C924.102 1034.92 921.225 1044.27 920.391 1053.91C919.556 1063.54 920.782 1073.25 923.989 1082.38L958.014 1179.46L1298.94 567.438C1303.69 558.926 1306.56 549.494 1307.35 539.78C1308.15 530.065 1306.85 520.294 1303.55 511.124V511.124Z" fill="#111827"/>
</g>
<defs>
<clipPath id="clip0_401_38">
<rect width="1466" height="1309" fill="white"/>
</clipPath>
</defs>
</svg>
