<svg width="16" height="16" viewBox="0 0 16 16" fill="none" xmlns="http://www.w3.org/2000/svg">
<path d="M8.01846 16C5.77637 16 3.87934 15.224 2.3274 13.6721C0.776043 12.1207 0.000366211 10.224 0.000366211 7.9819C0.000366211 5.93284 0.668541 4.1546 2.00489 2.6472C3.34124 1.14039 5.0488 0.260774 7.12756 0.00835218C7.49877 -0.0361928 7.78831 0.0974422 7.99619 0.409257C8.20407 0.721072 8.19664 1.04773 7.97392 1.38925C7.7215 1.7753 7.53203 2.18363 7.40552 2.61423C7.27961 3.04484 7.21665 3.49771 7.21665 3.97286C7.21665 5.3092 7.68438 6.4451 8.61982 7.38055C9.55526 8.31599 10.6912 8.78371 12.0275 8.78371C12.4878 8.78371 12.9445 8.7169 13.3977 8.58326C13.8503 8.44963 14.2548 8.26402 14.6111 8.02645C14.9229 7.81857 15.2422 7.80729 15.5688 7.99259C15.8955 8.1785 16.0366 8.4719 15.992 8.8728C15.7841 10.9219 14.9119 12.622 13.3754 13.9732C11.8383 15.3244 10.0527 16 8.01846 16Z" fill="#111827"/>
</svg>
