<svg width="16" height="16" viewBox="0 0 16 16" fill="none" xmlns="http://www.w3.org/2000/svg">
<g clip-path="url(#clip0_4_37677)">
<path d="M8.00008 4.66666C6.16008 4.66666 4.66675 6.15999 4.66675 7.99999C4.66675 9.83999 6.16008 11.3333 8.00008 11.3333C9.84008 11.3333 11.3334 9.83999 11.3334 7.99999C11.3334 6.15999 9.84008 4.66666 8.00008 4.66666ZM1.33341 8.66666H2.66675C3.03341 8.66666 3.33341 8.36666 3.33341 7.99999C3.33341 7.63332 3.03341 7.33332 2.66675 7.33332H1.33341C0.966748 7.33332 0.666748 7.63332 0.666748 7.99999C0.666748 8.36666 0.966748 8.66666 1.33341 8.66666ZM13.3334 8.66666H14.6667C15.0334 8.66666 15.3334 8.36666 15.3334 7.99999C15.3334 7.63332 15.0334 7.33332 14.6667 7.33332H13.3334C12.9667 7.33332 12.6667 7.63332 12.6667 7.99999C12.6667 8.36666 12.9667 8.66666 13.3334 8.66666ZM7.33342 1.33332V2.66666C7.33342 3.03332 7.63341 3.33332 8.00008 3.33332C8.36675 3.33332 8.66675 3.03332 8.66675 2.66666V1.33332C8.66675 0.966657 8.36675 0.666656 8.00008 0.666656C7.63341 0.666656 7.33342 0.966657 7.33342 1.33332ZM7.33342 13.3333V14.6667C7.33342 15.0333 7.63341 15.3333 8.00008 15.3333C8.36675 15.3333 8.66675 15.0333 8.66675 14.6667V13.3333C8.66675 12.9667 8.36675 12.6667 8.00008 12.6667C7.63341 12.6667 7.33342 12.9667 7.33342 13.3333ZM3.99341 3.05332C3.93174 2.99152 3.85848 2.94249 3.77783 2.90903C3.69718 2.87558 3.61073 2.85836 3.52341 2.85836C3.4361 2.85836 3.34965 2.87558 3.269 2.90903C3.18835 2.94249 3.11509 2.99152 3.05341 3.05332C2.99161 3.115 2.94258 3.18826 2.90913 3.26891C2.87567 3.34956 2.85845 3.43601 2.85845 3.52332C2.85845 3.61064 2.87567 3.69709 2.90913 3.77774C2.94258 3.85839 2.99161 3.93165 3.05341 3.99332L3.76008 4.69999C4.02008 4.95999 4.44675 4.95999 4.70008 4.69999C4.95341 4.43999 4.96008 4.01332 4.70008 3.75999L3.99341 3.05332ZM12.2401 11.3C12.1784 11.2382 12.1051 11.1892 12.0245 11.1557C11.9438 11.1222 11.8574 11.105 11.7701 11.105C11.6828 11.105 11.5963 11.1222 11.5157 11.1557C11.435 11.1892 11.3618 11.2382 11.3001 11.3C11.2383 11.3617 11.1892 11.4349 11.1558 11.5156C11.1223 11.5962 11.1051 11.6827 11.1051 11.77C11.1051 11.8573 11.1223 11.9438 11.1558 12.0244C11.1892 12.1051 11.2383 12.1783 11.3001 12.24L12.0067 12.9467C12.2667 13.2067 12.6934 13.2067 12.9467 12.9467C13.0086 12.885 13.0576 12.8117 13.091 12.7311C13.1245 12.6504 13.1417 12.564 13.1417 12.4767C13.1417 12.3893 13.1245 12.3029 13.091 12.2222C13.0576 12.1416 13.0086 12.0683 12.9467 12.0067L12.2401 11.3ZM12.9467 3.99332C13.0086 3.93165 13.0576 3.85839 13.091 3.77774C13.1245 3.69709 13.1417 3.61064 13.1417 3.52332C13.1417 3.43601 13.1245 3.34956 13.091 3.26891C13.0576 3.18826 13.0086 3.115 12.9467 3.05332C12.8851 2.99152 12.8118 2.94249 12.7312 2.90903C12.6505 2.87558 12.5641 2.85836 12.4767 2.85836C12.3894 2.85836 12.303 2.87558 12.2223 2.90903C12.1417 2.94249 12.0684 2.99152 12.0067 3.05332L11.3001 3.75999C11.0401 4.01999 11.0401 4.44666 11.3001 4.69999C11.5601 4.95332 11.9867 4.95999 12.2401 4.69999L12.9467 3.99332ZM4.70008 12.24C4.76188 12.1783 4.81092 12.1051 4.84437 12.0244C4.87782 11.9438 4.89504 11.8573 4.89504 11.77C4.89504 11.6827 4.87782 11.5962 4.84437 11.5156C4.81092 11.4349 4.76188 11.3617 4.70008 11.3C4.63841 11.2382 4.56515 11.1892 4.4845 11.1557C4.40385 11.1222 4.31739 11.105 4.23008 11.105C4.14277 11.105 4.05631 11.1222 3.97567 11.1557C3.89502 11.1892 3.82176 11.2382 3.76008 11.3L3.05341 12.0067C2.79341 12.2667 2.79341 12.6933 3.05341 12.9467C3.31341 13.2 3.74008 13.2067 3.99341 12.9467L4.70008 12.24Z" fill="#F8FAFC"/>
</g>
<defs>
<clipPath id="clip0_4_37677">
<rect width="16" height="16" fill="white"/>
</clipPath>
</defs>
</svg>
