<svg width="17" height="17" viewBox="0 0 17 17" fill="none" xmlns="http://www.w3.org/2000/svg">
<g clip-path="url(#clip0_4_19223)">
<path d="M16.1905 3.62324C15.6338 3.86991 15.0358 4.03657 14.4071 4.11191C15.0558 3.72377 15.5411 3.11289 15.7725 2.39324C15.163 2.75523 14.496 3.01004 13.8005 3.14658C13.3327 2.64715 12.7132 2.31613 12.038 2.20489C11.3629 2.09366 10.6699 2.20844 10.0666 2.53141C9.46339 2.85438 8.98365 3.36748 8.7019 3.99104C8.42016 4.61461 8.35216 5.31374 8.50847 5.97991C7.27359 5.91791 6.06555 5.59694 4.96275 5.03784C3.85995 4.47875 2.88703 3.69402 2.10713 2.73458C1.84047 3.19458 1.68713 3.72791 1.68713 4.29591C1.68684 4.80724 1.81276 5.31074 2.05372 5.76173C2.29468 6.21272 2.64324 6.59727 3.06847 6.88124C2.57532 6.86555 2.09305 6.7323 1.6618 6.49257V6.53257C1.66175 7.24973 1.90982 7.94483 2.36392 8.49991C2.81802 9.05498 3.45018 9.43586 4.15314 9.57791C3.69566 9.70172 3.21603 9.71995 2.75047 9.63124C2.9488 10.2483 3.33513 10.7879 3.85538 11.1745C4.37563 11.5611 5.00375 11.7754 5.6518 11.7872C4.55169 12.6508 3.19306 13.1193 1.79447 13.1172C1.54672 13.1173 1.29919 13.1028 1.05313 13.0739C2.47279 13.9867 4.12536 14.4711 5.81314 14.4692C11.5265 14.4692 14.6498 9.73724 14.6498 5.63324C14.6498 5.49991 14.6465 5.36524 14.6405 5.23191C15.248 4.79256 15.7724 4.24851 16.1891 3.62524L16.1905 3.62324Z" fill="#fff"/>
</g>
<defs>
<clipPath id="clip0_4_19223">
<rect width="16" height="16" fill="white" transform="translate(0.428467 0.331909)"/>
</clipPath>
</defs>
</svg>
